<svg id="Layer_1" data-name="Layer 1" xmlns="http://www.w3.org/2000/svg" viewBox="0 0 225.76 70"><defs><style>.cls-1{fill:#a4b3ff;}.cls-2{fill:#fff;}</style></defs><title>logo_white</title><path d="M220.94,32V31.6h0.49V31.24h-0.49v-1h-0.45v0.9h-1.8l-0.29-.2V30.26l-0.61.08v0.49h-2.16V29.64h-0.57l-0.45.57v0.45h-2.9V30.34h-1.47L210,29.93V29.36h-1.06v0.33l-0.61.16v0.37H207.8V29.81H207.4v0.37h-1.06l-0.45.61a3.57,3.57,0,0,1-1.59-.16V29.81s0.33-.41.57-0.78a1.46,1.46,0,0,0,.49-0.41c0.16-.24.45,0,0.45,0V28l-0.24-.24a3.69,3.69,0,0,0-3.55-3,4.18,4.18,0,0,0-4.3,4.63l-1,.43s-3.06,3.06-4,3.92c0,0-1.47,6.67-2.26,8.08a3.35,3.35,0,0,0-.67,2l-0.31.49,0.24,0.37L189.69,45l-0.31.18V45.9l0.31,0.37a10.79,10.79,0,0,0,.12,1.16c0.06,0.18-3.37,7-4.47,10.83a8.89,8.89,0,0,1-1.77,1A8.73,8.73,0,0,0,181,61.39a2.6,2.6,0,0,1-.92.92,0.89,0.89,0,0,0-.37.86,20,20,0,0,0,.24,3.31,4.59,4.59,0,0,0,1.71,1.1,4.11,4.11,0,0,0,2.26-.49,6.68,6.68,0,0,0,.24-2.57c-0.06-.55,2.51-0.18,2.88-0.31s0.67-.24,1.41-1.47,2.08-3.31,2.33-3.61a5.11,5.11,0,0,0,.31-1.22c0.12-.24,3.61-6.12,4-6.92a1.32,1.32,0,0,1,1.35.37c0.37,0.61,2.57,3.51,2.94,4.12s1.67,1.14,2,1.75a7.09,7.09,0,0,1,.53,2.73,13.5,13.5,0,0,0,.37,3.14,7.77,7.77,0,0,1,.29,1.92l0.37,0.41-0.37,0a6.4,6.4,0,0,0-.16,2.16,10.38,10.38,0,0,0,3.1,2.29,10.07,10.07,0,0,0,2.49,0c0.24,0,.29-1.26.12-1.67a18.94,18.94,0,0,1-1.43-2.37,19.88,19.88,0,0,1,.2-4.2,0.6,0.6,0,0,0-.2-0.65s0-1.88-.08-2.24a10.33,10.33,0,0,0,.12-2,9.23,9.23,0,0,0-1-1.84,25.64,25.64,0,0,0-2-2.65,1.71,1.71,0,0,1-.12-0.94l0.49-.24,0.24-.73-3.31-4.81-1.18-.12a9.69,9.69,0,0,1,0-2.53,5,5,0,0,0,1.14-.29c0.29-.16.53-2.86,0.73-3s1.88-.12,2.57-0.33a2.19,2.19,0,0,1,1.06-.33c0.37,0.08.78-.49,1.26-0.49a2.32,2.32,0,0,0,1.22-.08c0.29-.2.78-1.31,1.18-1.43s0.61-.2.61-0.2l0.45-.69v0.82L212,36.91a4.72,4.72,0,0,1,.12-1.59l0.61,0.12a9.75,9.75,0,0,0,1.67,4.49l1.1-.65s-1.84-3-1.31-4.65h0.37v0.29h0.82V34.46h0.9V34h0.49V33.4h0.53V33h2.37V32.54H220v0.41h0.37V32.5h2V32h-1.47Zm-13.47,1.75a2.6,2.6,0,0,0-.57.33,4.38,4.38,0,0,0-1.26,0,6.61,6.61,0,0,0-.78.73,1,1,0,0,1-1.67-.65A4.76,4.76,0,0,1,205.11,33a11.56,11.56,0,0,1,2.65.08l0.2,0.37A0.6,0.6,0,0,1,207.48,33.77Z"/><path class="cls-1" d="M187.16,11.49h38.6l-2.2,10H187.48S190.34,14.26,187.16,11.49Z"/><path d="M79.51,28.73a1.06,1.06,0,0,0,.37.56,1.49,1.49,0,0,0,.62.25,3.93,3.93,0,0,0,.71.07H97.4l-1.69,5.91H79.18a8.21,8.21,0,0,1-2.85-.46,4.32,4.32,0,0,1-2-1.39,4.5,4.5,0,0,1-.88-2.35A8.8,8.8,0,0,1,73.88,28l2.18-9a11.08,11.08,0,0,1,3.28-5.66A7.61,7.61,0,0,1,82.09,12a13.88,13.88,0,0,1,3.57-.46h16.92l-1.69,5.91H84.69a4.56,4.56,0,0,0-.74.07,2.75,2.75,0,0,0-.78.25,2.25,2.25,0,0,0-.69.56,2.5,2.5,0,0,0-.49,1l-2.43,8.41A1.75,1.75,0,0,0,79.51,28.73Z"/><path d="M118.61,28.09a1.33,1.33,0,0,0,.05-0.84,1,1,0,0,0-.37-0.47,1.41,1.41,0,0,0-.56-0.22,3.16,3.16,0,0,0-.51-0.05h-9.73a8.21,8.21,0,0,1-2.85-.46,4.13,4.13,0,0,1-2.84-3.68,8.74,8.74,0,0,1,.39-3.29,11.45,11.45,0,0,1,1.5-3.31,9.62,9.62,0,0,1,2.21-2.35A8.92,8.92,0,0,1,108.66,12a10.7,10.7,0,0,1,3.13-.46H127.9l-1.69,5.91H110.44a3.84,3.84,0,0,0-.54.05,2.26,2.26,0,0,0-.68.22,2.23,2.23,0,0,0-.63.47,1.84,1.84,0,0,0-.42.78,1.57,1.57,0,0,0,0,.84,0.92,0.92,0,0,0,.34.47,1.27,1.27,0,0,0,.54.22,3.2,3.2,0,0,0,.51.05h9.39a8.21,8.21,0,0,1,2.85.46,4.13,4.13,0,0,1,2.84,3.68,8.74,8.74,0,0,1-.39,3.29,11.46,11.46,0,0,1-1.5,3.31,9.61,9.61,0,0,1-2.21,2.35,9,9,0,0,1-2.74,1.39,10.54,10.54,0,0,1-3.11.46H97.92l1.69-5.91h16.74a3.81,3.81,0,0,0,.54-0.05,2.25,2.25,0,0,0,1.3-.69A1.86,1.86,0,0,0,118.61,28.09Z"/><polygon points="125.31 31.24 127 25.32 132.61 25.32 130.92 31.24 125.31 31.24"/><polygon points="127.86 22.73 129.55 16.82 135.16 16.82 133.47 22.73 127.86 22.73"/><path d="M163.62,15.76a9.63,9.63,0,0,1,2.21-2.35A8.91,8.91,0,0,1,168.58,12a10.7,10.7,0,0,1,3.12-.46h10a8.21,8.21,0,0,1,2.86.46,4.21,4.21,0,0,1,1.94,1.39,4.6,4.6,0,0,1,.86,2.35,8.81,8.81,0,0,1-.39,3.31l-2.57,9a11.45,11.45,0,0,1-1.5,3.31,9.6,9.6,0,0,1-2.21,2.35A9,9,0,0,1,178,35.07a10.54,10.54,0,0,1-3.11.46h-10a8.21,8.21,0,0,1-2.85-.46,4.32,4.32,0,0,1-2-1.39,4.5,4.5,0,0,1-.88-2.35,8.8,8.8,0,0,1,.39-3.31l2.57-9A11.45,11.45,0,0,1,163.62,15.76Zm17.72,3.58a1.91,1.91,0,0,0,.07-1,1,1,0,0,0-.35-0.56,1.51,1.51,0,0,0-.62-0.25,4,4,0,0,0-.71-0.07h-9.36a4.56,4.56,0,0,0-.74.07,2.75,2.75,0,0,0-.78.25,2.25,2.25,0,0,0-.69.56,2.5,2.5,0,0,0-.49,1l-2.43,8.41a1.76,1.76,0,0,0-.05,1,1.06,1.06,0,0,0,.37.56,1.49,1.49,0,0,0,.62.25,3.92,3.92,0,0,0,.71.07h9.36a4.52,4.52,0,0,0,.74-0.07,2.73,2.73,0,0,0,.78-0.25,2.08,2.08,0,0,0,.68-0.56,2.65,2.65,0,0,0,.47-1Z"/><path class="cls-2" d="M209.5,14.3a2.8,2.8,0,0,1,.64-0.68,2.6,2.6,0,0,1,.8-0.4,3.12,3.12,0,0,1,.91-0.13h2.92a2.39,2.39,0,0,1,.83.13,1.23,1.23,0,0,1,.57.4,1.34,1.34,0,0,1,.25.68,2.57,2.57,0,0,1-.11,1l-0.75,2.61a3.34,3.34,0,0,1-.44,1,2.8,2.8,0,0,1-.64.68,2.61,2.61,0,0,1-.8.4,3.07,3.07,0,0,1-.91.13h-2.92a2.39,2.39,0,0,1-.83-0.13,1.26,1.26,0,0,1-.57-0.4,1.31,1.31,0,0,1-.26-0.68,2.56,2.56,0,0,1,.11-1l0.75-2.61A3.34,3.34,0,0,1,209.5,14.3Zm5.16,1a0.56,0.56,0,0,0,0-.29,0.29,0.29,0,0,0-.1-0.16,0.44,0.44,0,0,0-.18-0.07l-0.21,0h-2.73l-0.22,0a0.8,0.8,0,0,0-.23.07,0.66,0.66,0,0,0-.2.16,0.73,0.73,0,0,0-.14.29L210,17.79a0.51,0.51,0,0,0,0,.29,0.31,0.31,0,0,0,.11.16,0.43,0.43,0,0,0,.18.07l0.21,0h2.73l0.22,0a0.8,0.8,0,0,0,.23-0.07,0.61,0.61,0,0,0,.2-0.16,0.77,0.77,0,0,0,.14-0.29Z"/><path d="M83.72,60.44a1.32,1.32,0,0,0,.05-0.84,1,1,0,0,0-.37-0.47,1.42,1.42,0,0,0-.56-0.22,3.17,3.17,0,0,0-.51-0.05H73a8.21,8.21,0,0,1-2.85-.46,4.13,4.13,0,0,1-2.84-3.68,8.74,8.74,0,0,1,.39-3.29,11.45,11.45,0,0,1,1.5-3.31,9.62,9.62,0,0,1,2.21-2.35,8.92,8.92,0,0,1,2.75-1.39,10.7,10.7,0,0,1,3.13-.46H93.7L92,49.84H76a3.84,3.84,0,0,0-.54.05,2.26,2.26,0,0,0-.68.22,2.24,2.24,0,0,0-.63.47,1.84,1.84,0,0,0-.42.78,1.57,1.57,0,0,0,0,.84,0.92,0.92,0,0,0,.34.47,1.27,1.27,0,0,0,.54.22,3.2,3.2,0,0,0,.51.05h9.59a8.21,8.21,0,0,1,2.85.46,4.13,4.13,0,0,1,2.84,3.68A8.75,8.75,0,0,1,90,60.38a11.45,11.45,0,0,1-1.5,3.31A9.61,9.61,0,0,1,86.3,66a9,9,0,0,1-2.74,1.39,10.54,10.54,0,0,1-3.11.46H63.72L65.4,62H81.46A3.81,3.81,0,0,0,82,61.91a2.25,2.25,0,0,0,1.3-.69A1.85,1.85,0,0,0,83.72,60.44Z"/><path d="M92,67.88l6.86-24h5.61l-2.6,9h13.23l2.6-9h5.61l-6.86,24h-5.61l2.57-9H100.19l-2.57,9H92Z"/><path d="M127.43,48.11a9.63,9.63,0,0,1,2.21-2.35,8.91,8.91,0,0,1,2.75-1.39,10.7,10.7,0,0,1,3.12-.46h10a8.21,8.21,0,0,1,2.86.46,4.21,4.21,0,0,1,1.94,1.39,4.6,4.6,0,0,1,.86,2.35,8.81,8.81,0,0,1-.39,3.31l-2.57,9a11.45,11.45,0,0,1-1.5,3.31A9.6,9.6,0,0,1,144.54,66a9,9,0,0,1-2.74,1.39,10.54,10.54,0,0,1-3.11.46h-10a8.21,8.21,0,0,1-2.85-.46,4.32,4.32,0,0,1-2-1.39,4.5,4.5,0,0,1-.88-2.35,8.8,8.8,0,0,1,.39-3.31l2.57-9A11.46,11.46,0,0,1,127.43,48.11Zm17.72,3.58a1.91,1.91,0,0,0,.07-1,1,1,0,0,0-.35-0.56,1.51,1.51,0,0,0-.62-0.25,4,4,0,0,0-.71-0.07h-9.36a4.56,4.56,0,0,0-.74.07,2.75,2.75,0,0,0-.78.25,2.25,2.25,0,0,0-.69.56,2.5,2.5,0,0,0-.49,1L129,60.11a1.76,1.76,0,0,0-.05,1,1.06,1.06,0,0,0,.37.56,1.49,1.49,0,0,0,.62.25,3.93,3.93,0,0,0,.71.07H140a4.52,4.52,0,0,0,.74-0.07,2.73,2.73,0,0,0,.78-0.25,2.08,2.08,0,0,0,.68-0.56,2.65,2.65,0,0,0,.47-1Z"/><path d="M141.74,19.34a2.5,2.5,0,0,1,.49-1,2.25,2.25,0,0,1,.69-0.56,2.74,2.74,0,0,1,.78-0.25,4.56,4.56,0,0,1,.74-0.07h16.83L163,11.57H145.79a10.7,10.7,0,0,0-3.12.46,8.91,8.91,0,0,0-2.75,1.39,9.63,9.63,0,0,0-2.21,2.35,11.46,11.46,0,0,0-1.5,3.31l-2.13,9a8.8,8.8,0,0,0-.39,3.31,4.5,4.5,0,0,0,.88,2.35,4.32,4.32,0,0,0,2,1.39,8.21,8.21,0,0,0,2.85.46h16.85l0.72-2.7L159.57,23l0.7-2.63H154l-0.05.21-1.48,5.91-0.78,3.11H141.4a3.92,3.92,0,0,1-.71-0.07,1.49,1.49,0,0,1-.62-0.25,1.06,1.06,0,0,1-.37-0.56,1.76,1.76,0,0,1,.05-1Z"/><path d="M178.65,46.12a4,4,0,0,0-1.87-1.66,6.94,6.94,0,0,0-2.84-.54H157.11l-2,8.41h0l-4.44,15.55h5.61l4.63-16.18a2.5,2.5,0,0,1,.49-1,2.25,2.25,0,0,1,.69-0.56,2.75,2.75,0,0,1,.78-0.25,4.56,4.56,0,0,1,.74-0.07h8.62a1.8,1.8,0,0,1,.49.08,0.88,0.88,0,0,1,.49.41,1.94,1.94,0,0,1,.22,1,3.26,3.26,0,0,1-.32,1.17,8.22,8.22,0,0,1-.73,1.81,4.31,4.31,0,0,1-.76,1,1.54,1.54,0,0,1-.71.41,2.87,2.87,0,0,1-.54.07h-7.53l-1.72,5.91h7.52a10.35,10.35,0,0,0,3.13-.47,8.23,8.23,0,0,0,2.8-1.55,11,11,0,0,0,2.35-2.82,18.29,18.29,0,0,0,1.79-4.27,10.76,10.76,0,0,0,.62-3.55A5.9,5.9,0,0,0,178.65,46.12Z"/><path class="cls-2" d="M200.64,13.72a1.17,1.17,0,0,0-.55-0.48,2,2,0,0,0-.83-0.16h-4.91l-0.58,2.45h0l-1.29,4.53h1.63l1.35-4.72a0.73,0.73,0,0,1,.14-0.29,0.66,0.66,0,0,1,.2-0.16,0.8,0.8,0,0,1,.23-0.07l0.22,0h2.51l0.14,0a0.26,0.26,0,0,1,.14.12,0.56,0.56,0,0,1,.06.28,1,1,0,0,1-.09.34,2.39,2.39,0,0,1-.21.53,1.26,1.26,0,0,1-.22.29,0.45,0.45,0,0,1-.21.12l-0.16,0H196l-0.5,1.72h2.19a3,3,0,0,0,.91-0.14,2.4,2.4,0,0,0,.82-0.45,3.2,3.2,0,0,0,.68-0.82,5.33,5.33,0,0,0,.52-1.25,3.14,3.14,0,0,0,.18-1A1.72,1.72,0,0,0,200.64,13.72Z"/><rect x="69.07" y="38.66" width="110.5" height="1.39"/><path class="cls-2" d="M208.32,13.72a1.17,1.17,0,0,0-.55-0.48,2,2,0,0,0-.83-0.16H202l-0.58,2.45h0l-1.29,4.53h1.63l1.35-4.72a0.73,0.73,0,0,1,.14-0.29,0.66,0.66,0,0,1,.2-0.16,0.8,0.8,0,0,1,.23-0.07l0.22,0h2.51l0.14,0a0.26,0.26,0,0,1,.14.12,0.56,0.56,0,0,1,.06.28,1,1,0,0,1-.09.34,2.39,2.39,0,0,1-.21.53,1.26,1.26,0,0,1-.22.29,0.45,0.45,0,0,1-.21.12l-0.16,0h-2.19l-0.5,1.72h2.16v0.07l-0.52,1.74h1.62s1.18-1.86.37-2.16h0a2.55,2.55,0,0,0,.34-0.23,3.2,3.2,0,0,0,.68-0.82,5.33,5.33,0,0,0,.52-1.25,3.14,3.14,0,0,0,.18-1A1.72,1.72,0,0,0,208.32,13.72Z"/><path d="M54.3,11.45C49.25,6.65,37.24.19,29.77,0V36.12Z"/><path class="cls-1" d="M0,38.63A28.94,28.94,0,0,0,8,57.91L18.83,47.05a13.65,13.65,0,0,1-3.49-8.43H0Z"/><path class="cls-1" d="M9,58.94a28.94,28.94,0,0,0,19.28,8V51.58a13.65,13.65,0,0,1-8.43-3.49Z"/><path class="cls-1" d="M8,17.88A28.94,28.94,0,0,0,0,37.16H15.34a13.65,13.65,0,0,1,3.49-8.43Z"/><path class="cls-1" d="M28.3,8.86A28.94,28.94,0,0,0,9,16.84L19.87,27.7A13.65,13.65,0,0,1,28.3,24.2V8.86Z"/><path class="cls-1" d="M29.77,66.93a28.94,28.94,0,0,0,19.28-8L38.19,48.09a13.65,13.65,0,0,1-8.43,3.49V66.93Z"/><path class="cls-1" d="M39.23,47.05L50.08,57.91a28.94,28.94,0,0,0,8-19.28H42.72A13.65,13.65,0,0,1,39.23,47.05Z"/><path class="cls-1" d="M58.07,37.16a28.94,28.94,0,0,0-8-19.28L39.23,28.73a13.65,13.65,0,0,1,3.49,8.43H58.07Z"/></svg>