<svg id="Слой_1" data-name="Слой 1" xmlns="http://www.w3.org/2000/svg" viewBox="0 0 225.78 69.92"><defs><style>.cls-1{fill:#fff;}.cls-2{fill:#a4b3ff;}</style></defs><title>logo_black</title><path class="cls-1" d="M221.06,32.09v-0.4h0.49V31.32h-0.49v-1h-0.45v0.9h-1.8l-0.29-.2V30.34l-0.61.08v0.49h-2.16V29.73h-0.57l-0.45.57v0.45h-2.9V30.42h-1.47L210.13,30V29.44h-1.06v0.33l-0.61.16V30.3h-0.53V29.89h-0.41v0.37h-1.06l-0.45.61a3.57,3.57,0,0,1-1.59-.16V29.89s0.33-.41.57-0.78a1.46,1.46,0,0,0,.49-0.41c0.16-.24.45,0,0.45,0V28.09l-0.24-.24a3.69,3.69,0,0,0-3.55-3,4.18,4.18,0,0,0-4.3,4.63l-1,.43s-3.06,3.06-4,3.92c0,0-1.47,6.67-2.26,8.08a3.35,3.35,0,0,0-.67,2l-0.31.49,0.24,0.37,0.06,0.43-0.31.18V46l0.31,0.37a10.79,10.79,0,0,0,.12,1.16c0.06,0.18-3.37,7-4.47,10.83a8.89,8.89,0,0,1-1.77,1,8.73,8.73,0,0,0-2.57,2.08,2.6,2.6,0,0,1-.92.92,0.89,0.89,0,0,0-.37.86,20,20,0,0,0,.24,3.31,4.59,4.59,0,0,0,1.71,1.1,4.11,4.11,0,0,0,2.26-.49,6.68,6.68,0,0,0,.24-2.57c-0.06-.55,2.51-0.18,2.88-0.31s0.67-.24,1.41-1.47,2.08-3.31,2.33-3.61A5.11,5.11,0,0,0,191.3,58c0.12-.24,3.61-6.12,4-6.92a1.32,1.32,0,0,1,1.35.37c0.37,0.61,2.57,3.51,2.94,4.12s1.67,1.14,2,1.75A7.09,7.09,0,0,1,202,60a13.5,13.5,0,0,0,.37,3.14,7.77,7.77,0,0,1,.29,1.92L203,65.47h-0.37a6.4,6.4,0,0,0-.16,2.16,10.38,10.38,0,0,0,3.1,2.29,10.07,10.07,0,0,0,2.49,0c0.24,0,.29-1.26.12-1.67A18.94,18.94,0,0,1,206.82,66a19.88,19.88,0,0,1,.2-4.2,0.6,0.6,0,0,0-.2-0.65s0-1.88-.08-2.24a10.33,10.33,0,0,0,.12-2,9.23,9.23,0,0,0-1-1.84,25.64,25.64,0,0,0-2-2.65,1.71,1.71,0,0,1-.12-0.94l0.49-.24,0.24-.73-3.31-4.81L200,45.48A9.69,9.69,0,0,1,200,43a5,5,0,0,0,1.14-.29c0.29-.16.53-2.86,0.73-3s1.88-.12,2.57-0.33A2.19,2.19,0,0,1,205.5,39c0.37,0.08.78-.49,1.26-0.49a2.32,2.32,0,0,0,1.22-.08c0.29-.2.78-1.31,1.18-1.43s0.61-.2.61-0.2l0.45-.69v0.82l2,0.07a4.72,4.72,0,0,1,.12-1.59l0.61,0.12A9.75,9.75,0,0,0,214.58,40l1.1-.65s-1.84-3-1.31-4.65h0.37V35h0.82V34.54h0.9V34.09H217V33.48h0.53V33.07h2.37V32.62h0.33V33h0.37V32.58h2V32.09h-1.49ZM207.6,33.85a2.6,2.6,0,0,0-.57.33,4.38,4.38,0,0,0-1.26,0,6.61,6.61,0,0,0-.78.73,1,1,0,0,1-1.67-.65,4.76,4.76,0,0,1,1.92-1.18,11.56,11.56,0,0,1,2.65.08l0.2,0.37A0.6,0.6,0,0,1,207.6,33.85Z" transform="translate(-0.1 -0.08)"/><path class="cls-2" d="M187.28,11.57c3.18,2.77.32,10,.32,10h36.08l2.2-10h-38.6Zm12.28,6.14a2.35,2.35,0,0,1-.82.45,3.09,3.09,0,0,1-.91.14h-2.19l0.5-1.72h2.35a0.45,0.45,0,0,0,.21-0.12,1.24,1.24,0,0,0,.22-0.29,2.66,2.66,0,0,0,.21-0.53,1,1,0,0,0,.09-0.34,0.67,0.67,0,0,0-.06-0.28A0.24,0.24,0,0,0,199,14.9h-2.87a0.88,0.88,0,0,0-.23.07,0.62,0.62,0,0,0-.2.16,0.65,0.65,0,0,0-.14.29l-1.35,4.72H192.6l1.29-4.53,0.58-2.45h4.91a2,2,0,0,1,.83.16,1.22,1.22,0,0,1,.55.48,1.74,1.74,0,0,1,.18.84,3.39,3.39,0,0,1-.18,1,5.08,5.08,0,0,1-.52,1.25A3.16,3.16,0,0,1,199.56,17.71Zm7.77,0A2.54,2.54,0,0,1,207,18c0.81,0.3-.37,2.16-0.37,2.16H205l0.49-1.77V18.3h-2.16l0.5-1.72h2.35a0.45,0.45,0,0,0,.21-0.12,1.24,1.24,0,0,0,.22-0.29,2.66,2.66,0,0,0,.21-0.53,1,1,0,0,0,.09-0.34,0.67,0.67,0,0,0-.06-0.28,0.24,0.24,0,0,0-.14-0.12h-2.87a0.88,0.88,0,0,0-.23.07,0.62,0.62,0,0,0-.2.16,0.65,0.65,0,0,0-.14.29l-1.35,4.72h-1.63l1.29-4.53,0.58-2.45h4.91a2,2,0,0,1,.83.16,1.22,1.22,0,0,1,.55.48,1.81,1.81,0,0,1,.26.88,3.39,3.39,0,0,1-.18,1,5.08,5.08,0,0,1-.52,1.25A3.17,3.17,0,0,1,207.33,17.75Zm9.1-2.37L215.69,18a3.32,3.32,0,0,1-.44,1,2.76,2.76,0,0,1-.64.68,2.61,2.61,0,0,1-.8.4,3.13,3.13,0,0,1-.91.13H210a2.36,2.36,0,0,1-.83-0.13,1.35,1.35,0,0,1-.57-0.4,1.29,1.29,0,0,1-.26-0.68,2.59,2.59,0,0,1,.11-1l0.75-2.61a3.33,3.33,0,0,1,.42-1,2.76,2.76,0,0,1,.64-0.68,2.61,2.61,0,0,1,.8-0.4,3.13,3.13,0,0,1,.91-0.13h2.92a2.36,2.36,0,0,1,.83.13,1.27,1.27,0,0,1,.57.4,1.37,1.37,0,0,1,.25.68A2.59,2.59,0,0,1,216.43,15.38Zm-1.93-.52h-3.16a0.88,0.88,0,0,0-.23.07,0.62,0.62,0,0,0-.2.16,0.65,0.65,0,0,0-.14.29l-0.71,2.45a0.48,0.48,0,0,0,0,.29,0.36,0.36,0,0,0,.11.16,0.4,0.4,0,0,0,.18.07h3.16a0.88,0.88,0,0,0,.23-0.07,0.53,0.53,0,0,0,.2-0.16,0.78,0.78,0,0,0,.14-0.29l0.7-2.45a0.48,0.48,0,0,0,0-.29,0.28,0.28,0,0,0-.1-0.16A0.4,0.4,0,0,0,214.5,14.86Z" transform="translate(-0.1 -0.08)"/><path class="cls-1" d="M79.63,28.81a1.06,1.06,0,0,0,.37.56,1.49,1.49,0,0,0,.62.25,3.93,3.93,0,0,0,.71.07H97.52L95.83,35.6H79.31a8.21,8.21,0,0,1-2.85-.46,4.32,4.32,0,0,1-2-1.39,4.5,4.5,0,0,1-.88-2.35A8.8,8.8,0,0,1,74,28.1l2.18-9a11.08,11.08,0,0,1,3.28-5.66,7.61,7.61,0,0,1,2.75-1.39,13.88,13.88,0,0,1,3.57-.46H102.7l-1.7,6H84.81a4.56,4.56,0,0,0-.74.07,2.75,2.75,0,0,0-.78.25,2.25,2.25,0,0,0-.69.56,2.5,2.5,0,0,0-.49,1l-2.43,8.41A1.75,1.75,0,0,0,79.63,28.81Z" transform="translate(-0.1 -0.08)"/><path class="cls-1" d="M118.73,28.17a1.33,1.33,0,0,0,.05-0.84,1,1,0,0,0-.37-0.47,1.41,1.41,0,0,0-.56-0.22,3.16,3.16,0,0,0-.51,0h-9.73a8.21,8.21,0,0,1-2.85-.46,4.13,4.13,0,0,1-2.84-3.68,8.74,8.74,0,0,1,.39-3.29,11.45,11.45,0,0,1,1.5-3.31A9.62,9.62,0,0,1,106,13.49a8.92,8.92,0,0,1,2.75-1.39,10.7,10.7,0,0,1,3.13-.46H128l-1.69,5.91H110.56a3.84,3.84,0,0,0-.54,0,2.26,2.26,0,0,0-.68.22,2.23,2.23,0,0,0-.63.47,1.84,1.84,0,0,0-.42.78,1.57,1.57,0,0,0,0,.84,0.92,0.92,0,0,0,.34.47,1.27,1.27,0,0,0,.54.22,3.2,3.2,0,0,0,.51,0H119a8.21,8.21,0,0,1,2.85.46,4.13,4.13,0,0,1,2.84,3.68,8.74,8.74,0,0,1-.39,3.29,11.46,11.46,0,0,1-1.5,3.31,9.61,9.61,0,0,1-2.21,2.35,9,9,0,0,1-2.74,1.39,10.54,10.54,0,0,1-3.11.46H98l1.69-5.91h16.74a3.81,3.81,0,0,0,.54,0,2.25,2.25,0,0,0,1.3-.69A1.86,1.86,0,0,0,118.73,28.17Z" transform="translate(-0.1 -0.08)"/><polygon class="cls-1" points="125.34 31.24 127.02 25.33 132.63 25.33 130.94 31.24 125.34 31.24"/><polygon class="cls-1" points="127.88 22.73 129.57 16.82 135.18 16.82 133.49 22.73 127.88 22.73"/><path class="cls-1" d="M163.74,15.84A9.63,9.63,0,0,1,166,13.49a8.91,8.91,0,0,1,2.75-1.39,10.7,10.7,0,0,1,3.12-.46h10a8.21,8.21,0,0,1,2.86.46,4.21,4.21,0,0,1,1.94,1.39,4.6,4.6,0,0,1,.86,2.35,8.81,8.81,0,0,1-.39,3.31l-2.57,9a11.45,11.45,0,0,1-1.5,3.31,9.6,9.6,0,0,1-2.21,2.35,9,9,0,0,1-2.74,1.39,10.54,10.54,0,0,1-3.11.46H165a8.21,8.21,0,0,1-2.85-.46,4.32,4.32,0,0,1-2-1.39,4.5,4.5,0,0,1-.88-2.35,8.8,8.8,0,0,1,.39-3.31l2.57-9A11.45,11.45,0,0,1,163.74,15.84Zm17.72,3.58a1.91,1.91,0,0,0,.07-1,1,1,0,0,0-.35-0.56,1.51,1.51,0,0,0-.62-0.25,4,4,0,0,0-.71-0.07h-9.36a4.56,4.56,0,0,0-.74.07,2.75,2.75,0,0,0-.78.25,2.25,2.25,0,0,0-.69.56,2.5,2.5,0,0,0-.49,1l-2.43,8.41a1.76,1.76,0,0,0-.05,1,1.06,1.06,0,0,0,.37.56,1.49,1.49,0,0,0,.62.25,3.92,3.92,0,0,0,.71.07h9.36a4.52,4.52,0,0,0,.74-0.07,2.73,2.73,0,0,0,.78-0.25,2.08,2.08,0,0,0,.68-0.56,2.65,2.65,0,0,0,.47-1Z" transform="translate(-0.1 -0.08)"/><path class="cls-1" d="M83.84,60.53a1.32,1.32,0,0,0,.05-0.84,1,1,0,0,0-.37-0.47A1.42,1.42,0,0,0,83,59a3.17,3.17,0,0,0-.51,0H73.16a8.21,8.21,0,0,1-2.85-.46,4.13,4.13,0,0,1-2.84-3.68,8.74,8.74,0,0,1,.39-3.29,11.45,11.45,0,0,1,1.5-3.31,9.62,9.62,0,0,1,2.21-2.35,8.92,8.92,0,0,1,2.75-1.39A10.7,10.7,0,0,1,77.45,44H93.82l-1.69,5.91h-16a3.84,3.84,0,0,0-.54,0,2.3,2.3,0,0,0-1.31.69,1.84,1.84,0,0,0-.42.78,1.57,1.57,0,0,0,0,.84,0.92,0.92,0,0,0,.34.47,1.27,1.27,0,0,0,.54.22,3.2,3.2,0,0,0,.51,0h9.59a8.21,8.21,0,0,1,2.85.46,4.13,4.13,0,0,1,2.84,3.68,8.75,8.75,0,0,1-.39,3.29,11.45,11.45,0,0,1-1.5,3.31,9.61,9.61,0,0,1-2.21,2.35,9,9,0,0,1-2.74,1.39,10.54,10.54,0,0,1-3.11.46H63.84l1.69-6H81.58a3.81,3.81,0,0,0,.54,0,2.25,2.25,0,0,0,1.3-.69A1.85,1.85,0,0,0,83.84,60.53Z" transform="translate(-0.1 -0.08)"/><path class="cls-1" d="M92.13,68L99,44h5.61L102,53h13.23l2.6-9h5.61l-6.86,24H111l2.57-9H100.31l-2.57,9H92.13Z" transform="translate(-0.1 -0.08)"/><path class="cls-1" d="M127.55,48.2a9.63,9.63,0,0,1,2.21-2.35,8.91,8.91,0,0,1,2.75-1.39,10.7,10.7,0,0,1,3.12-.46h10a8.21,8.21,0,0,1,2.86.46,4.21,4.21,0,0,1,1.94,1.39,4.6,4.6,0,0,1,.86,2.35,8.81,8.81,0,0,1-.39,3.31l-2.57,9a11.45,11.45,0,0,1-1.5,3.31,9.6,9.6,0,0,1-2.21,2.35,9,9,0,0,1-2.74,1.39,10.54,10.54,0,0,1-3.11.46h-10a8.21,8.21,0,0,1-2.85-.46,4.32,4.32,0,0,1-2-1.39,4.5,4.5,0,0,1-.88-2.35,8.8,8.8,0,0,1,.39-3.31l2.57-9A11.46,11.46,0,0,1,127.55,48.2Zm17.72,3.58a1.91,1.91,0,0,0,.07-1,1,1,0,0,0-.35-0.56,1.51,1.51,0,0,0-.62-0.25,4,4,0,0,0-.71-0.07H134.3a4.56,4.56,0,0,0-.74.07,2.75,2.75,0,0,0-.78.25,2.25,2.25,0,0,0-.69.56,2.5,2.5,0,0,0-.49,1l-2.43,8.41a1.76,1.76,0,0,0-.05,1,1.06,1.06,0,0,0,.37.56,1.49,1.49,0,0,0,.62.25,3.93,3.93,0,0,0,.71.07h9.36a4.52,4.52,0,0,0,.74-0.07,2.73,2.73,0,0,0,.78-0.25,2.08,2.08,0,0,0,.68-0.56,2.65,2.65,0,0,0,.47-1Z" transform="translate(-0.1 -0.08)"/><path class="cls-1" d="M141.86,19.42a2.5,2.5,0,0,1,.49-1,2.25,2.25,0,0,1,.69-0.56,2.74,2.74,0,0,1,.78-0.25,4.56,4.56,0,0,1,.74-0.07h16.83l1.69-5.91H145.91a10.7,10.7,0,0,0-3.12.46,8.91,8.91,0,0,0-2.79,1.4,9.63,9.63,0,0,0-2.21,2.35,11.46,11.46,0,0,0-1.5,3.31l-2.13,9a8.8,8.8,0,0,0-.39,3.31,4.5,4.5,0,0,0,.88,2.35,4.32,4.32,0,0,0,2,1.39,8.21,8.21,0,0,0,2.85.46h16.85l0.72-2.7,2.62-9.81,0.7-2.63H154.1l-0.05.21-1.48,5.91-0.78,3.11H141.52a3.92,3.92,0,0,1-.71-0.07,1.49,1.49,0,0,1-.62-0.25,1.06,1.06,0,0,1-.37-0.56,1.76,1.76,0,0,1,.05-1Z" transform="translate(-0.1 -0.08)"/><path class="cls-1" d="M178.78,46.2a4,4,0,0,0-1.87-1.66,6.94,6.94,0,0,0-2.84-.54H157.23l-2,8.41h0L150.82,68h5.61l4.63-16.18a2.5,2.5,0,0,1,.49-1,2.25,2.25,0,0,1,.69-0.56A2.75,2.75,0,0,1,163,50a4.56,4.56,0,0,1,.74-0.07h8.62a1.8,1.8,0,0,1,.49.08,0.88,0.88,0,0,1,.49.41,1.94,1.94,0,0,1,.22,1,3.26,3.26,0,0,1-.32,1.17,8.22,8.22,0,0,1-.73,1.81,4.31,4.31,0,0,1-.76,1,1.54,1.54,0,0,1-.71.41,2.87,2.87,0,0,1-.54.07H163l-1.72,5.91h7.52a10.35,10.35,0,0,0,3.13-.47,8.23,8.23,0,0,0,2.8-1.55A11,11,0,0,0,177.08,57a18.29,18.29,0,0,0,1.79-4.27,10.76,10.76,0,0,0,.62-3.55A5.9,5.9,0,0,0,178.78,46.2Z" transform="translate(-0.1 -0.08)"/><rect class="cls-1" x="69.09" y="38.66" width="110.5" height="1.39"/><path class="cls-1" d="M54.42,11.53C49.38,6.73,37.36.27,29.89,0.08V36.2Z" transform="translate(-0.1 -0.08)"/><path class="cls-2" d="M0.12,38.71A28.94,28.94,0,0,0,8.1,58L19,47.14a13.65,13.65,0,0,1-3.49-8.43H0.12Z" transform="translate(-0.1 -0.08)"/><path class="cls-2" d="M9.14,59a28.94,28.94,0,0,0,19.28,8V51.67A13.65,13.65,0,0,1,20,48.18Z" transform="translate(-0.1 -0.08)"/><path class="cls-2" d="M8.1,18a28.94,28.94,0,0,0-8,19.28H15.46A13.65,13.65,0,0,1,19,28.82Z" transform="translate(-0.1 -0.08)"/><path class="cls-2" d="M28.42,8.94a28.94,28.94,0,0,0-19.28,8L20,27.78a13.65,13.65,0,0,1,8.43-3.49V8.94h0Z" transform="translate(-0.1 -0.08)"/><path class="cls-2" d="M29.89,67a28.94,28.94,0,0,0,19.28-8L38.32,48.18a13.65,13.65,0,0,1-8.43,3.49V67Z" transform="translate(-0.1 -0.08)"/><path class="cls-2" d="M39.35,47.14L50.21,58a28.94,28.94,0,0,0,8-19.28H42.85A13.65,13.65,0,0,1,39.35,47.14Z" transform="translate(-0.1 -0.08)"/><path class="cls-2" d="M58.19,37.24a28.94,28.94,0,0,0-8-19.28L39.35,28.82a13.65,13.65,0,0,1,3.49,8.43H58.19Z" transform="translate(-0.1 -0.08)"/></svg>